<?xml version="1.0" encoding="utf-8"?>
<!-- Generator: Adobe Illustrator 24.0.1, SVG Export Plug-In . SVG Version: 6.00 Build 0)  -->
<svg version="1.1" xmlns="http://www.w3.org/2000/svg" xmlns:xlink="http://www.w3.org/1999/xlink" x="0px" y="0px"
	 viewBox="0 0 1920 1080" style="enable-background:new 0 0 1920 1080;" xml:space="preserve">
<style type="text/css">
	.st0{fill:#6300FF;}
	.st1{fill:#B7B7B7;}
	.st2{fill:none;stroke:#000000;stroke-width:5;stroke-miterlimit:10;}
	.st3{fill:none;stroke:#000000;stroke-width:5.8604;stroke-miterlimit:10;}
	.st4{fill:none;stroke:#000000;stroke-width:6.2635;stroke-miterlimit:10;}
	.st5{fill:none;stroke:#000000;stroke-width:91.9273;stroke-miterlimit:10;}
	.st6{fill:none;stroke:#000000;stroke-width:55.2638;stroke-miterlimit:10;}
	.st7{fill:none;stroke:#000000;stroke-width:2.2041;stroke-miterlimit:10;}
	.st8{fill:none;stroke:#000000;stroke-miterlimit:10;}
	.st9{fill:none;stroke:#000000;stroke-width:0.5841;stroke-miterlimit:10;}
	.st10{display:none;}
	.st11{display:inline;fill:#151515;}
	.st12{fill:#151515;}
</style>
<g id="Layer_1">
</g>
<g id="Layer_3">
	<g class="st10">
		<path class="st11" d="M537.42,287.87l-17.57-4.55H435.4c6.95,6.05,16.22,10.57,27.8,13.55l55.28,14.29
			c27.12,6.83,40.68,18.53,40.68,35.09c0,13.04-5.28,23.19-15.84,30.43c-8.9,6.01-22.47,9.01-40.68,9.01
			c-19.88,0-35.35-4.4-46.43-13.2c-11.08-8.8-16.61-21.27-16.61-37.42v-0.62h-26.71c0.41,18.84,4.76,33.85,13.04,45.03
			c15.53,20.71,40.47,31.06,74.84,31.06c27.12,0,47.93-5.59,62.42-16.77c16.35-12.83,24.53-29.5,24.53-50
			C587.73,315.4,570.96,296.77,537.42,287.87z"/>
		<path class="st11" d="M636.18,184.76v222.36H607.3V184.76H636.18z"/>
		<path class="st11" d="M689.59,184.76v197.2h109.63v25.16H661.33V184.76H689.59z"/>
		<path class="st11" d="M840.83,184.76v222.36h-28.88V184.76H840.83z"/>
		<path class="st11" d="M1043.31,252.77h-29.19c-3.11-14.91-8.49-25.78-16.15-32.61c-9.94-9.11-24.43-13.66-43.48-13.66
			c-23.19,0-41.1,9.11-53.73,27.33c-10.98,15.95-16.46,36.85-16.46,62.73c0,29.19,7.35,51.86,22.05,68.01
			c13.04,13.87,29.81,20.81,50.31,20.81c25.05,0,42.34-9.21,51.86-27.64c4.35-8.49,7.76-19.77,10.25-33.85h29.19
			c-6.83,57.76-37.17,86.65-90.99,86.65c-28.99,0-51.86-8.49-68.63-25.47c-21.54-21.74-32.3-50.93-32.3-87.58
			c0-35.61,10.35-64.91,31.06-87.89c16.97-18.84,40.37-28.26,70.19-28.26C1005.73,181.34,1034.4,205.16,1043.31,252.77z"/>
		<path class="st11" d="M1237.1,217.06c-19.88-23.81-47-35.71-81.37-35.71c-17.19,0-32.61,3.04-46.27,9.08v30.15
			c12.64-9.37,27.95-14.08,45.96-14.08c22.15,0,40.37,7.14,54.66,21.43c16.35,16.57,24.53,39.24,24.53,68.01
			c0,25.05-6.32,45.65-18.94,61.8c-14.7,18.43-34.78,27.64-60.25,27.64c-21.95,0-40.06-7.14-54.35-21.43
			c-3.16-3.2-6-6.62-8.55-10.27h-32.11c3.7,7.6,8.25,14.65,13.64,21.14c19.88,23.81,47.1,35.71,81.68,35.71
			c29.81,0,54.45-9.21,73.91-27.64c22.15-21.32,33.23-50.31,33.23-86.96C1262.87,264.06,1254.28,237.76,1237.1,217.06z"/>
		<path class="st11" d="M1446.1,184.76v222.36h-31.68L1299.2,226.69v180.43h-26.71V184.76h30.75l116.15,181.68V184.76H1446.1z"/>
		<path class="st11" d="M471,550.11v101.24h-28.26V429h149.07v25.16H471v70.81h106.21v25.16H471z"/>
		<path class="st11" d="M773.33,630.7c-1.55-5.28-2.54-15.68-2.95-31.21c-0.62-21.12-3.31-35.09-8.07-41.93
			c-4.77-6.62-12.22-11.9-22.36-15.84c12.63-6.21,21.69-13.46,27.17-21.74c5.48-8.28,8.23-18.74,8.23-31.37
			c0-18.01-5.08-32.09-15.22-42.24C748.53,434.8,730.94,429,707.33,429H605.16v116.21h51.85v0.98h3.91v9.52h45.48
			c13.46,0,22.98,3.31,28.57,9.94c1.65,2.07,3.42,5.49,5.28,10.25c1.86,4.77,2.8,8.28,2.8,10.56l-0.31,34.78
			c0,10.56,2.28,20.6,6.83,30.12h34.16v-7.14C778.34,640.49,774.88,635.98,773.33,630.7z M702.05,530.55h-68.63v-76.4h68.63
			c29.19,0,43.79,12.73,43.79,38.2C745.84,517.82,731.25,530.55,702.05,530.55z"/>
		<path class="st11" d="M831.55,429v222.36h-28.88V429H831.55z"/>
		<polygon class="st11" points="893.97,550.11 1015.09,550.11 1015.09,524.96 893.97,524.96 893.97,454.15 940.4,454.15 940.4,429 
			865.71,429 865.71,651.35 1025.03,651.35 1025.03,626.2 893.97,626.2 		"/>
		<polygon class="st11" points="1160.27,568.64 1070.99,429 1040.25,429 1040.25,651.35 1066.95,651.35 1066.95,470.92 
			1160.27,617.06 		"/>
		<path class="st11" d="M1326.39,625.36c-3.97,0.56-8.15,0.84-12.55,0.84h-52.48V454.15h52.48c4.4,0,8.58,0.29,12.55,0.84v-25.75
			c-2.48-0.17-5-0.25-7.58-0.25h-85.71v222.36h85.71c2.58,0,5.1-0.11,7.58-0.28V625.36z"/>
		<path class="st11" d="M803.79,875.15c-3.87,6.63-8.64,11.91-14.31,15.84c-5.67,3.94-11.51,5.9-17.51,5.9
			c-14.01,0-24.81-9.37-32.41-28.11c-7.6-18.73-11.41-45.29-11.41-79.66c0-34.57,3.8-61.28,11.41-80.12
			c4.96-12.3,11.33-20.56,19.08-24.83v-4.91c-6.58,2.36-12.8,6.57-18.68,12.65c-9.6,9.94-17.18,23.5-22.71,40.68
			c-5.54,17.19-8.3,36.02-8.3,56.52c0,20.71,2.77,39.6,8.3,56.68c5.53,17.08,13.14,30.59,22.81,40.53
			c9.67,9.94,20.31,14.91,31.91,14.91c6.53,0,13.31-1.97,20.31-5.9c7-3.93,13.51-9.32,19.51-16.15l6.8,17.08h2.6v-71.43l-2.6-0.62
			C815.26,846.79,810.32,863.77,803.79,875.15z"/>
		<path class="st11" d="M952.46,893.78v2.48h-49.02v-2.48l16.41-3.11l-18.81-79.5h-48.42L836,879.81c-0.53,2.28-0.8,4.14-0.8,5.59
			c0,2.28,0.43,3.88,1.3,4.81c0.87,0.93,2.43,1.61,4.7,2.02l12.21,1.55v2.48h-42.62v-2.48l11.21-1.55c3.33-0.41,5.7-1.45,7.1-3.11
			c1.4-1.65,2.63-4.76,3.7-9.32l49.02-202.79h3.6l50.42,213.66L952.46,893.78z M899.83,806.21l-22.41-94.72h-0.8l-22.81,94.72
			H899.83z"/>
		<path class="st11" d="M1029.33,844.25l-4.84,20.03h-0.8l-49.22-182.3h-34.22v2.48h9.2c2.67,0,4.7,0.47,6.1,1.4
			c1.4,0.93,2.57,2.64,3.5,5.12v186.33c0,4.97-0.4,8.44-1.2,10.4c-0.8,1.97-2.4,3.16-4.8,3.57l-14.41,2.48v2.48h43.82v-2.48
			l-14.21-2.48c-2.4-0.41-4-1.6-4.8-3.57c-0.8-1.97-1.2-5.44-1.2-10.4V701.86h0.8l53.82,199.38h2l10.44-43.1V844.25z"/>
		<path class="st11" d="M1131.53,803.1v88.2l19.61,2.48v2.48h-51.42v-2.48l16.41-2.48V686.95l-16.41-2.48v-2.48h50.62
			c15.61,0,27.58,5.18,35.92,15.53c8.34,10.36,12.51,24.95,12.51,43.79c0,20.08-4.13,35.4-12.4,45.96
			c-8.27,10.56-20.28,15.84-36.02,15.84H1131.53z M1131.53,685.71v113.66h18.21c10.8,0,18.67-4.76,23.61-14.29
			c4.93-9.52,7.4-24.64,7.4-45.34c0-17.18-2.23-30.48-6.7-39.91c-4.47-9.42-12.57-14.13-24.31-14.13H1131.53z"/>
	</g>
	<g>
		<path class="st12" d="M757.66,681.13c3.84-1.91,8.01-2.88,12.51-2.88c7.73,0,14.81,2.75,21.21,8.23
			c6.4,5.49,11.6,13.31,15.61,23.45c4,10.35,6.93,23.5,8.8,39.44l2.8-1.24l-2-69.88H814l-4.8,14.91
			c-7.74-6.42-14.78-11.13-21.11-14.13c-6.34-3-12.51-4.5-18.51-4.5c-4.09,0-8.06,0.64-11.91,1.91V681.13z"/>
		<polygon class="st12" points="1100.34,684.47 1100.34,681.98 1068.12,681.98 1030.3,838.6 1030.3,852.51 1066.72,702.17 
			1067.52,702.17 1067.52,891.3 1051.11,893.78 1051.11,896.27 1100.34,896.27 1100.34,893.78 1082.93,891.3 1082.93,686.95 		"/>
		<path class="st12" d="M452.57,283.32h46.16c-2.32-1.53-4.77-3.08-7.38-4.66c-10.3-6.42-18.26-11.9-23.87-16.46
			c-5.62-4.55-10-9.94-13.15-16.15c-3.15-6.21-4.73-13.87-4.73-22.98c0-12.63,2.84-22.62,8.53-29.97
			c5.69-7.35,13.3-11.02,22.84-11.02c15.84,0,27.6,10.67,35.29,31.99c3.84,10.56,7,22.78,9.46,36.65l2.31-0.93l-2.31-67.7h-3
			l-5.54,14.91c-6.31-6.62-12.19-11.38-17.65-14.29c-5.46-2.9-11.34-4.35-17.65-4.35c-9.08,0-17.18,2.54-24.34,7.61
			c-7.15,5.08-12.77,12.11-16.84,21.12c-4.08,9.01-6.11,19.21-6.11,30.59c0,11.18,1.88,20.65,5.65,28.42
			C443.61,272.97,447.71,278.71,452.57,283.32z"/>
		<path class="st12" d="M1107.5,186.38c-4.72,2.46-9.25,5.9-13.58,10.35c-9.67,9.94-17.28,23.45-22.81,40.53
			c-5.54,17.08-8.3,35.98-8.3,56.68c0,20.71,2.77,39.6,8.3,56.68c0.23,0.7,0.46,1.39,0.7,2.08h15.32
			c-3.41-16.04-5.12-35.62-5.12-58.76c0-34.57,3.8-61.28,11.41-80.12c3.86-9.57,8.56-16.7,14.08-21.41V186.38z"/>
		<polygon class="st12" points="623.96,579.41 623.79,579.41 623.79,545.21 608.55,545.21 608.55,651.04 592.14,653.53 
			592.14,656.01 641.37,656.01 641.37,653.53 623.96,651.04 		"/>
		<path class="st12" d="M1018.5,428h-82.01v4.94l0.17,0.03v0.84h15.41v-2.08h45.22c3.2,0,5.5,0.73,6.9,2.17
			c1.4,1.45,2.7,4.56,3.9,9.32l11.21,43.48l2-0.31L1018.5,428z"/>
		<path class="st12" d="M1160.27,427v3.21l13.37,2.05c2.54,0.22,4.23,1.43,5.08,3.61c0.85,2.19,1.27,5.91,1.27,11.17v161.29h-0.85
			l-18.88-41.04v45.41l20.99,46.22h2.12V447.03c0-5.26,0.56-8.87,1.69-10.84c1.13-1.97,3.39-3.28,6.77-3.94l15.24-2.63V427H1160.27z
			"/>
		<path class="st12" d="M1381.81,477.43c-4.9-16.75-11.73-29.93-20.51-39.54c-8.49-9.07-19.48-14.65-32.95-16.77v4.21
			c4.01,0.73,7.44,1.78,10.28,3.18c5.9,2.91,10.87,8.04,14.9,15.42c4.89,8.94,8.6,21,11.12,36.19c2.52,15.2,3.78,32.73,3.78,52.61
			c0,20.33-1.33,38.93-3.99,55.8c-2.67,16.87-6.3,29.88-10.9,39.04c-3.75,7.37-8.5,12.51-14.25,15.42
			c-2.91,1.47-6.55,2.56-10.93,3.29v4.21c5.04-0.72,9.59-1.86,13.63-3.48c7.27-2.9,13.71-7.48,19.32-13.74
			c8.78-9.83,15.62-23.46,20.51-40.88c4.89-17.43,7.34-36.75,7.34-57.97C1389.15,513.18,1386.7,494.19,1381.81,477.43z"/>
	</g>
</g>
</svg>
